<svg width="16" height="24" viewBox="0 0 16 24" fill="none" xmlns="http://www.w3.org/2000/svg">
<path d="M13.25 0C14.4688 0 15.5 1.03125 15.5 2.25V21.75C15.5 23.0156 14.4688 24 13.25 24H2.75C1.48438 24 0.5 23.0156 0.5 21.75V2.25C0.5 1.03125 1.48438 0 2.75 0H13.25ZM8 22.5C8.79688 22.5 9.5 21.8438 9.5 21C9.5 20.2031 8.79688 19.5 8 19.5C7.15625 19.5 6.5 20.2031 6.5 21C6.5 21.8438 7.15625 22.5 8 22.5ZM13.25 17.4375V2.8125C13.25 2.53125 12.9688 2.25 12.6875 2.25H3.3125C2.98438 2.25 2.75 2.53125 2.75 2.8125V17.4375C2.75 17.7656 2.98438 18 3.3125 18H12.6875C12.9688 18 13.25 17.7656 13.25 17.4375Z" fill="#A4A4A4"/>
</svg>
