<svg width="479" height="274" viewBox="0 0 479 274" fill="none" xmlns="http://www.w3.org/2000/svg">
<path d="M356.532 152.196C274.018 214.907 141.995 234.71 82.5852 234.71C3.37173 226.789 18.7744 167.599 36.3773 138.994C31.0964 141.634 25.3754 148.895 23.175 152.196L6.67224 181.901C-11.8109 224.148 14.3736 247.912 29.7762 254.513C58.8211 278.277 127.693 275.417 158.498 271.016C241.012 264.415 346.63 211.606 379.636 185.202C450.928 137.674 481.953 79.5836 478.652 56.4799C481.292 6.31137 398.339 -1.83002 356.532 0.370361C462.15 5.65128 451.148 53.1793 432.445 76.2832C422.543 96.0865 379.636 135.693 356.532 152.196Z" fill="white"/>
</svg>
