<svg width="479" height="274" viewBox="0 0 479 274" fill="none" xmlns="http://www.w3.org/2000/svg">
<path d="M122.673 121.804C205.187 59.0934 337.209 39.2899 396.619 39.2899C475.832 47.2112 460.43 106.401 442.827 135.006C448.108 132.366 453.829 125.105 456.029 121.804L472.532 92.099C491.015 49.8518 464.831 26.0877 449.428 19.4865C420.383 -4.27749 351.511 -1.41701 320.706 2.98374C238.192 9.585 132.574 62.394 99.5687 88.7983C28.2766 136.326 -2.74883 194.416 0.552229 217.52C-2.08822 267.689 80.8656 275.83 122.673 273.63C17.0547 268.349 28.0565 220.821 46.7597 197.717C56.6612 177.914 99.5687 138.307 122.673 121.804Z" fill="white"/>
</svg>
